<svg id="svg" version="1.1" xmlns="http://www.w3.org/2000/svg" xmlns:xlink="http://www.w3.org/1999/xlink" width="400" height="400" viewBox="0, 0, 400,400"><g id="svgg"><path id="path0" d="M194.000 5.000 C 194.000 5.550,193.122 6.000,192.050 6.000 C 190.977 6.000,189.641 6.787,189.080 7.750 C 188.519 8.713,188.047 9.084,188.030 8.576 C 188.014 8.067,186.802 8.742,185.339 10.076 C 183.875 11.409,183.048 11.825,183.500 11.000 C 183.952 10.175,183.208 10.512,181.847 11.750 C 180.485 12.987,178.613 14.000,177.686 14.000 C 176.758 14.000,176.000 14.477,176.000 15.059 C 176.000 15.641,175.610 15.877,175.134 15.583 C 174.657 15.288,173.472 15.926,172.500 17.000 C 171.528 18.074,170.379 18.734,169.947 18.467 C 169.515 18.200,168.537 18.606,167.774 19.369 C 167.011 20.132,164.918 21.079,163.122 21.473 C 161.326 21.868,160.113 22.447,160.427 22.760 C 160.741 23.074,158.664 24.152,155.813 25.156 C 152.962 26.160,150.375 27.379,150.065 27.865 C 149.754 28.351,148.037 29.066,146.250 29.454 C 144.463 29.842,143.000 30.573,143.000 31.079 C 143.000 31.586,142.095 32.000,140.989 32.000 C 139.883 32.000,136.846 33.003,134.239 34.229 C 129.224 36.588,129.175 36.602,124.500 36.863 C 122.339 36.984,121.891 37.278,122.897 37.915 C 123.858 38.524,123.176 38.800,120.714 38.800 C 118.744 38.800,116.540 39.171,115.816 39.625 C 115.092 40.078,113.410 40.599,112.077 40.782 C 110.744 40.965,108.823 41.560,107.806 42.104 C 106.790 42.647,105.405 42.775,104.729 42.386 C 104.027 41.982,103.853 42.065,104.323 42.579 C 105.555 43.926,87.119 46.594,74.722 46.862 C 57.911 47.226,43.260 57.071,45.809 66.291 C 45.929 66.725,45.588 67.901,45.052 68.902 C 44.516 69.904,43.874 72.248,43.625 74.112 C 43.376 75.975,42.686 79.065,42.091 80.977 C 41.496 82.889,41.280 85.308,41.612 86.352 C 42.045 87.717,41.859 88.031,40.950 87.469 C 40.014 86.890,39.845 87.299,40.301 89.042 C 40.639 90.336,40.453 91.954,39.887 92.636 C 39.321 93.318,38.823 97.264,38.780 101.405 C 38.737 105.546,38.385 108.738,37.997 108.498 C 36.843 107.785,35.852 140.398,36.569 155.500 C 36.934 163.200,37.653 169.765,38.166 170.089 C 38.678 170.413,39.013 172.213,38.910 174.089 C 38.548 180.678,39.008 188.113,39.750 187.659 C 40.162 187.406,40.619 189.494,40.763 192.299 C 40.908 195.104,41.403 197.646,41.862 197.949 C 42.321 198.252,42.617 199.492,42.519 200.704 C 42.421 201.916,42.667 202.706,43.064 202.460 C 43.462 202.214,43.800 203.023,43.816 204.257 C 43.847 206.779,46.829 218.629,48.061 221.127 C 48.502 222.022,49.169 224.384,49.543 226.377 C 49.917 228.370,50.524 230.000,50.893 230.000 C 51.262 230.000,51.664 231.212,51.787 232.694 C 51.909 234.176,52.496 235.688,53.090 236.056 C 53.685 236.423,54.098 237.018,54.010 237.378 C 53.687 238.687,55.178 244.000,55.867 244.000 C 56.256 244.000,56.650 245.006,56.743 246.235 C 56.835 247.465,57.381 248.627,57.956 248.819 C 58.530 249.010,59.000 250.199,59.000 251.461 C 59.000 252.723,59.686 254.324,60.524 255.020 C 61.362 255.716,61.832 256.502,61.567 256.766 C 61.082 257.251,64.738 265.069,65.884 266.000 C 66.223 266.275,66.628 267.175,66.784 268.000 C 67.243 270.423,70.382 276.000,71.286 276.000 C 71.744 276.000,71.862 276.414,71.550 276.919 C 71.237 277.425,71.773 278.630,72.741 279.598 C 73.708 280.566,74.384 281.614,74.242 281.929 C 74.100 282.243,74.754 283.400,75.696 284.500 C 76.638 285.600,77.309 286.617,77.188 286.761 C 76.823 287.192,80.363 292.405,81.986 293.824 C 83.308 294.980,83.310 295.055,82.000 294.413 C 81.175 294.008,81.513 294.792,82.750 296.153 C 83.987 297.515,85.000 298.970,85.000 299.386 C 85.000 299.802,85.563 300.770,86.250 301.537 C 89.138 304.757,90.000 305.963,90.000 306.783 C 90.000 307.261,91.125 308.708,92.500 310.000 C 93.875 311.292,95.000 312.913,95.000 313.602 C 95.000 314.291,96.036 315.675,97.303 316.677 C 98.570 317.680,99.930 319.352,100.327 320.393 C 100.723 321.434,101.321 322.012,101.656 321.677 C 102.300 321.034,106.000 325.245,106.000 326.620 C 106.000 327.063,107.034 328.342,108.297 329.462 C 109.561 330.583,109.898 331.055,109.047 330.511 C 108.196 329.966,109.481 331.541,111.902 334.011 C 114.323 336.480,116.719 338.376,117.226 338.225 C 117.734 338.074,117.889 338.371,117.571 338.885 C 116.933 339.917,132.690 355.000,134.405 355.000 C 134.996 355.000,136.608 356.094,137.989 357.431 C 144.907 364.128,149.243 367.683,152.697 369.490 C 154.788 370.585,156.860 372.047,157.300 372.740 C 157.740 373.433,158.779 374.000,159.609 374.000 C 160.439 374.000,160.840 374.450,160.500 375.000 C 160.160 375.550,160.809 376.000,161.941 376.000 C 163.073 376.000,164.000 376.398,164.000 376.885 C 164.000 377.994,169.011 381.333,170.675 381.333 C 171.355 381.333,171.719 381.646,171.483 382.027 C 171.247 382.409,172.955 383.542,175.277 384.545 C 177.600 385.549,180.549 387.299,181.831 388.435 C 183.112 389.571,184.237 390.400,184.331 390.278 C 184.877 389.563,188.950 391.428,189.399 392.599 C 189.695 393.369,190.590 394.000,191.388 394.000 C 192.185 394.000,194.132 394.742,195.713 395.650 C 198.759 397.398,206.633 396.833,205.469 394.949 C 205.146 394.427,205.606 394.000,206.491 394.000 C 208.186 394.000,214.149 391.212,215.000 390.021 C 215.275 389.637,217.412 388.488,219.750 387.469 C 222.088 386.449,224.000 385.252,224.000 384.808 C 224.000 384.363,224.338 384.103,224.750 384.229 C 225.831 384.560,232.000 380.727,232.000 379.725 C 232.000 379.262,232.414 379.138,232.919 379.450 C 233.425 379.763,234.438 379.437,235.169 378.726 C 235.901 378.016,238.075 376.346,240.000 375.015 C 241.925 373.685,243.725 372.335,244.000 372.015 C 244.275 371.696,246.750 369.998,249.500 368.244 C 252.250 366.489,256.031 363.604,257.903 361.833 C 259.774 360.062,264.001 356.629,267.295 354.204 C 275.140 348.429,291.183 332.105,290.345 330.749 C 289.985 330.167,290.160 329.981,290.732 330.334 C 291.305 330.688,292.387 330.222,293.137 329.297 C 294.307 327.854,294.288 327.724,293.000 328.382 C 292.175 328.804,292.738 328.177,294.250 326.991 C 295.762 325.804,297.000 324.421,297.000 323.918 C 297.000 323.414,298.750 321.199,300.889 318.995 C 303.028 316.791,305.529 313.405,306.447 311.471 C 307.365 309.536,308.540 308.216,309.058 308.536 C 309.576 308.856,310.000 308.395,310.000 307.511 C 310.000 306.628,311.125 304.862,312.500 303.588 C 313.875 302.313,315.000 300.557,315.000 299.685 C 315.000 298.813,315.585 297.740,316.300 297.300 C 318.179 296.144,322.000 290.435,322.000 288.784 C 322.000 288.010,322.918 286.392,324.039 285.189 C 325.160 283.985,325.751 283.000,325.350 283.000 C 324.950 283.000,325.618 282.073,326.834 280.940 C 328.050 279.808,328.740 278.388,328.368 277.786 C 327.978 277.155,328.150 276.974,328.773 277.360 C 329.782 277.984,331.645 274.442,331.198 272.750 C 331.089 272.337,331.450 272.000,332.000 272.000 C 332.550 272.000,333.000 270.875,333.000 269.500 C 333.000 268.125,333.367 267.000,333.815 267.000 C 334.695 267.000,338.000 260.599,338.000 258.895 C 338.000 258.324,338.679 257.178,339.509 256.348 C 340.339 255.518,340.761 254.422,340.445 253.912 C 340.130 253.402,340.576 252.281,341.436 251.421 C 342.833 250.024,343.460 247.912,343.118 245.750 C 343.053 245.338,343.445 245.000,343.988 245.000 C 344.532 245.000,345.263 243.208,345.613 241.018 C 345.963 238.828,346.557 237.226,346.933 237.459 C 347.479 237.796,349.514 231.907,350.116 228.249 C 350.184 227.837,350.675 226.375,351.208 225.000 C 352.699 221.152,356.000 207.911,356.000 205.781 C 356.000 204.737,356.373 204.113,356.829 204.395 C 357.286 204.677,357.572 203.916,357.466 202.704 C 357.360 201.492,357.715 199.940,358.255 199.255 C 358.794 198.571,359.000 197.109,358.712 196.006 C 358.424 194.904,358.626 193.731,359.162 193.400 C 359.698 193.069,359.916 192.223,359.646 191.521 C 359.377 190.818,359.614 189.786,360.173 189.227 C 360.732 188.668,361.210 185.025,361.234 181.132 C 361.258 177.239,361.666 174.293,362.139 174.586 C 362.613 174.879,363.038 172.954,363.085 170.309 C 363.214 163.078,363.992 152.670,364.515 151.198 C 364.769 150.482,364.550 150.160,364.029 150.482 C 363.440 150.846,363.153 142.279,363.270 127.861 C 363.414 110.249,363.163 104.554,362.230 104.243 C 361.553 104.018,361.000 103.169,361.000 102.358 C 361.000 101.539,361.490 101.185,362.100 101.562 C 362.866 102.035,362.918 101.673,362.272 100.371 C 361.762 99.342,361.225 96.475,361.078 94.001 C 360.931 91.526,360.377 89.233,359.848 88.906 C 359.318 88.578,359.172 87.003,359.523 85.405 C 359.931 83.550,359.834 82.962,359.255 83.778 C 358.630 84.657,358.308 84.033,358.222 81.778 C 358.002 76.053,357.595 74.132,356.719 74.674 C 356.250 74.964,355.972 74.593,356.100 73.850 C 357.453 66.040,347.147 49.000,341.070 49.000 C 340.151 49.000,338.973 48.582,338.450 48.071 C 337.928 47.560,332.325 47.032,326.000 46.897 C 319.675 46.763,311.350 46.011,307.500 45.227 C 303.650 44.443,299.422 43.847,298.104 43.902 C 296.786 43.957,295.211 43.606,294.604 43.122 C 293.102 41.924,282.030 38.776,279.268 38.762 C 278.041 38.755,277.280 38.356,277.577 37.875 C 277.875 37.394,277.079 36.923,275.809 36.829 C 274.539 36.735,272.824 36.606,271.999 36.542 C 271.173 36.478,269.823 35.996,268.999 35.471 C 266.618 33.954,260.697 32.031,258.357 32.015 C 257.178 32.007,255.955 31.325,255.638 30.500 C 255.322 29.675,254.181 29.000,253.103 29.000 C 252.025 29.000,250.544 28.401,249.813 27.670 C 249.081 26.938,247.976 26.508,247.357 26.714 C 246.738 26.921,245.617 26.493,244.866 25.765 C 242.912 23.870,236.726 21.051,235.790 21.629 C 235.356 21.898,235.000 21.733,235.000 21.262 C 235.000 20.792,231.178 18.477,226.507 16.119 C 221.836 13.761,217.755 11.413,217.438 10.900 C 217.121 10.387,216.443 10.226,215.931 10.543 C 215.419 10.859,215.000 10.641,215.000 10.059 C 215.000 9.477,214.025 9.000,212.833 9.000 C 211.642 9.000,210.965 8.702,211.330 8.337 C 211.694 7.972,210.634 6.847,208.972 5.837 C 205.688 3.840,194.000 3.186,194.000 5.000 M227.266 26.904 C 264.056 45.609,291.580 53.977,321.750 55.633 C 330.621 56.119,334.000 56.654,334.000 57.573 C 334.000 59.953,310.890 82.172,309.123 81.491 C 308.230 81.146,303.625 80.694,298.889 80.486 C 282.336 79.758,251.775 72.856,247.550 68.891 C 247.028 68.401,245.961 68.000,245.180 68.000 C 241.516 68.000,206.813 49.612,204.765 46.586 C 204.361 45.989,204.024 39.178,204.015 31.450 C 203.998 15.513,204.593 13.862,209.173 17.123 C 210.745 18.243,218.887 22.644,227.266 26.904 M196.000 31.171 C 196.000 46.506,195.197 50.000,191.674 50.000 C 191.115 50.000,189.930 50.659,189.041 51.463 C 186.729 53.555,160.803 66.364,152.500 69.516 C 135.739 75.878,121.395 79.007,100.000 80.964 L 89.500 81.925 77.620 70.078 C 71.086 63.561,66.008 57.796,66.335 57.267 C 66.662 56.737,72.458 56.004,79.215 55.638 C 111.592 53.883,163.079 36.166,190.473 17.355 C 195.623 13.818,196.000 14.761,196.000 31.171 M202.550 55.906 C 204.291 57.565,225.158 68.420,236.000 73.306 C 256.088 82.359,278.294 87.944,294.349 87.982 C 305.999 88.009,310.126 90.559,312.170 98.993 C 317.868 122.500,320.370 152.302,317.963 168.000 C 317.415 171.575,316.791 176.975,316.577 180.000 C 313.402 224.742,281.090 282.836,241.649 314.717 C 237.717 317.895,234.275 320.722,234.000 320.998 C 229.900 325.116,202.678 341.017,199.779 340.987 C 198.640 340.975,192.915 337.857,179.606 330.000 C 169.018 323.750,152.893 310.783,152.868 308.500 C 152.851 306.870,149.812 303.998,148.780 304.636 C 148.256 304.960,146.291 303.736,144.414 301.916 C 141.046 298.653,139.816 296.200,142.250 297.602 C 142.938 297.998,142.440 297.157,141.144 295.733 C 139.847 294.310,138.272 293.313,137.644 293.518 C 136.588 293.864,133.040 289.862,123.963 278.088 C 115.704 267.377,108.206 254.715,101.408 240.000 C 99.502 235.875,97.527 231.600,97.020 230.500 C 83.501 201.198,78.289 147.854,85.490 112.500 C 89.280 93.896,89.537 93.264,94.695 89.863 C 97.748 87.850,107.416 87.245,108.500 89.000 C 108.840 89.550,110.779 89.936,112.809 89.858 L 116.500 89.716 112.500 89.080 L 108.500 88.443 114.500 87.693 C 127.707 86.043,151.418 79.830,155.500 76.950 C 156.050 76.562,157.625 75.915,159.000 75.511 C 163.121 74.301,187.091 62.421,193.000 58.660 C 198.725 55.016,200.945 54.375,202.550 55.906 M71.032 75.196 C 80.444 84.662,83.047 87.852,82.662 89.446 C 82.389 90.576,81.454 93.975,80.585 97.000 C 76.701 110.519,74.018 132.993,74.018 152.000 C 74.018 234.595,120.088 309.994,193.489 347.528 C 195.369 348.490,195.518 349.679,195.774 365.801 C 196.091 385.791,195.982 386.006,188.006 381.099 C 185.236 379.394,182.715 378.000,182.404 378.000 C 181.525 378.000,162.205 365.124,155.500 360.070 C 78.964 302.381,36.598 206.197,46.475 112.549 C 48.047 97.650,48.724 93.709,52.669 76.500 C 56.547 59.585,55.579 59.654,71.032 75.196 M347.180 75.012 C 356.874 116.577,357.626 147.334,350.039 192.000 C 348.326 202.084,343.018 220.673,337.517 235.852 C 330.154 256.168,315.073 284.276,302.585 300.957 C 300.338 303.958,298.050 307.180,297.500 308.116 C 292.740 316.218,264.147 344.769,248.500 357.044 C 238.674 364.753,226.537 372.963,217.498 378.018 C 203.408 385.896,204.583 386.826,204.181 367.484 C 203.828 350.549,204.245 348.838,209.286 346.517 C 228.840 337.514,258.825 313.191,276.493 292.000 C 292.334 272.999,309.556 241.960,315.887 221.000 C 327.711 181.857,330.160 142.887,322.895 109.500 C 320.684 99.344,318.873 92.446,317.895 90.463 C 316.748 88.137,340.085 62.897,343.000 63.311 C 344.047 63.459,345.309 66.994,347.180 75.012 M271.250 87.689 C 272.212 87.941,273.788 87.941,274.750 87.689 C 275.712 87.438,274.925 87.232,273.000 87.232 C 271.075 87.232,270.288 87.438,271.250 87.689 M286.250 89.689 C 287.212 89.941,288.788 89.941,289.750 89.689 C 290.712 89.438,289.925 89.232,288.000 89.232 C 286.075 89.232,285.288 89.438,286.250 89.689 M87.232 113.000 C 87.232 114.925,87.438 115.713,87.689 114.750 C 87.941 113.787,87.941 112.213,87.689 111.250 C 87.438 110.287,87.232 111.075,87.232 113.000 M281.015 341.485 C 279.157 343.402,277.470 344.803,277.266 344.599 C 276.746 344.080,282.293 338.263,283.446 338.119 C 283.967 338.053,282.872 339.568,281.015 341.485 " stroke="none" fill="#000000" fill-rule="evenodd"></path></g></svg>