<svg id="svg" version="1.1" xmlns="http://www.w3.org/2000/svg" xmlns:xlink="http://www.w3.org/1999/xlink" width="400" height="400" viewBox="0, 0, 400,400"><g id="svgg"><path id="path0" d="M192.905 2.942 C 193.462 3.286,191.702 4.619,188.995 5.904 C 186.287 7.190,183.361 9.326,182.492 10.653 C 181.623 11.979,180.578 12.857,180.170 12.605 C 179.289 12.061,179.088 13.204,178.375 22.788 C 177.843 29.941,180.038 38.986,182.309 38.996 C 182.754 38.998,182.797 39.520,182.405 40.155 C 182.012 40.789,182.111 41.050,182.623 40.733 C 184.569 39.530,188.525 43.662,187.087 45.395 C 186.365 46.265,185.305 46.688,184.732 46.334 C 184.160 45.981,183.984 46.164,184.341 46.743 C 184.699 47.321,183.531 49.808,181.746 52.269 C 173.342 63.856,170.741 66.958,169.881 66.426 C 169.369 66.110,169.033 66.222,169.134 66.676 C 169.519 68.407,167.470 71.960,161.739 79.499 C 161.321 80.050,160.047 81.742,158.909 83.260 C 157.771 84.777,156.356 85.720,155.765 85.355 C 155.174 84.990,154.960 85.126,155.289 85.658 C 155.932 86.700,152.808 92.056,151.395 92.333 C 150.924 92.425,150.530 92.950,150.519 93.500 C 150.399 99.764,139.999 105.979,129.568 106.020 C 126.781 106.031,121.575 106.497,118.000 107.054 C 114.425 107.612,108.800 108.279,105.500 108.537 C 102.200 108.795,96.922 109.515,93.770 110.136 C 90.619 110.757,86.038 111.039,83.590 110.763 C 81.142 110.487,78.770 110.600,78.319 111.014 C 77.869 111.428,75.420 112.063,72.879 112.425 L 68.258 113.084 66.595 108.001 C 65.681 105.205,65.196 102.492,65.518 101.971 C 65.840 101.449,65.518 101.233,64.802 101.489 C 64.086 101.745,62.375 100.430,61.000 98.566 C 59.625 96.703,58.275 95.211,58.000 95.250 C 57.725 95.290,56.233 94.800,54.685 94.161 C 50.702 92.518,40.063 92.718,36.646 94.501 C 35.076 95.320,33.378 95.733,32.871 95.420 C 32.365 95.107,32.074 95.279,32.225 95.802 C 32.376 96.325,31.283 98.132,29.795 99.817 C 25.336 104.869,23.641 112.427,25.536 118.810 C 26.391 121.689,26.773 124.597,26.385 125.272 C 25.997 125.947,26.045 126.169,26.493 125.764 C 27.312 125.022,36.672 132.981,36.299 134.102 C 36.189 134.433,37.268 134.480,38.698 134.207 C 40.128 133.934,41.048 134.113,40.744 134.605 C 40.440 135.097,42.805 135.500,46.000 135.500 C 49.195 135.500,51.560 135.097,51.256 134.605 C 50.952 134.113,51.872 133.934,53.302 134.207 C 54.813 134.496,55.817 134.267,55.701 133.661 C 55.590 133.088,56.236 132.457,57.135 132.258 C 58.379 131.984,59.906 134.599,63.525 143.199 C 66.141 149.414,69.607 157.425,71.228 161.000 C 72.849 164.575,74.859 169.075,75.696 171.000 C 76.532 172.925,77.810 175.850,78.536 177.500 C 82.981 187.602,83.994 190.023,83.868 190.248 C 83.791 190.387,84.689 192.293,85.864 194.485 C 88.366 199.152,88.461 200.284,86.652 203.846 C 85.072 206.955,82.713 212.199,80.878 216.678 C 80.162 218.426,79.152 219.594,78.633 219.273 C 78.115 218.953,77.984 219.166,78.343 219.746 C 79.479 221.584,64.948 254.615,63.598 253.265 C 63.211 252.878,63.183 253.313,63.536 254.233 C 64.431 256.566,63.056 258.655,61.809 256.857 C 61.137 255.887,61.035 256.096,61.451 257.589 C 62.435 261.123,59.310 267.188,56.710 266.791 C 55.494 266.605,54.576 266.013,54.668 265.476 C 55.102 262.959,38.298 265.406,33.903 268.500 C 22.899 276.247,21.718 291.851,31.430 301.183 C 42.535 311.854,61.503 307.078,66.159 292.439 C 67.352 288.685,68.268 287.420,69.976 287.166 C 71.486 286.941,71.986 287.214,71.502 287.997 C 71.034 288.754,71.434 289.055,72.641 288.856 C 73.663 288.688,75.132 288.946,75.905 289.429 C 76.916 290.063,77.087 289.951,76.518 289.029 C 75.058 286.667,115.910 291.405,121.371 294.231 C 122.686 294.912,123.040 294.873,122.562 294.100 C 121.674 292.663,128.297 292.634,133.007 294.053 C 134.928 294.632,137.992 295.127,139.816 295.153 C 143.147 295.200,149.743 301.989,148.465 304.056 C 148.192 304.499,148.494 305.187,149.138 305.585 C 149.919 306.068,150.039 305.873,149.500 305.000 C 148.949 304.108,149.080 303.932,149.914 304.447 C 150.586 304.862,150.886 305.855,150.580 306.653 C 150.273 307.451,150.428 307.853,150.924 307.547 C 151.877 306.958,158.000 314.087,158.000 315.787 C 158.000 316.336,158.722 317.063,159.604 317.401 C 160.519 317.753,160.962 318.657,160.635 319.508 C 160.320 320.329,160.611 321.010,161.281 321.021 C 163.059 321.053,168.250 328.787,167.407 330.150 C 166.999 330.810,167.125 331.041,167.700 330.685 C 168.918 329.933,171.753 332.927,175.577 339.000 C 177.135 341.475,180.262 345.750,182.526 348.500 C 188.369 355.598,188.341 355.459,184.651 359.152 C 176.127 367.683,175.452 381.764,183.172 389.977 C 184.452 391.339,185.500 392.764,185.500 393.143 C 185.500 393.523,185.910 394.208,186.410 394.667 C 186.939 395.151,187.019 394.976,186.601 394.250 C 185.711 392.702,186.133 392.692,189.685 394.176 C 192.945 395.537,207.038 396.867,206.345 395.748 C 206.089 395.335,206.988 394.575,208.343 394.060 C 209.697 393.545,211.101 392.646,211.462 392.062 C 211.823 391.478,212.597 391.000,213.181 391.000 C 213.827 391.000,213.717 391.689,212.903 392.750 C 212.165 393.713,212.784 393.409,214.280 392.076 C 217.109 389.554,218.129 387.818,215.500 390.000 C 213.277 391.845,213.671 390.454,216.647 385.957 C 220.041 380.829,220.414 370.453,217.397 365.110 C 216.354 363.263,215.056 360.907,214.513 359.875 C 213.970 358.844,212.732 358.000,211.763 358.000 C 208.412 358.000,210.131 353.102,215.479 347.414 C 216.040 346.816,218.959 342.879,221.965 338.664 C 224.971 334.449,227.783 331.000,228.215 331.000 C 228.647 331.000,229.000 330.531,229.000 329.957 C 229.000 327.920,237.104 317.946,238.206 318.627 C 238.853 319.027,239.027 318.853,238.627 318.205 C 238.251 317.597,238.852 316.614,239.962 316.020 C 241.072 315.426,241.931 314.616,241.872 314.220 C 241.558 312.135,242.130 310.963,243.155 311.595 C 243.829 312.013,244.039 311.872,243.659 311.258 C 242.843 309.936,251.733 297.717,252.959 298.475 C 253.456 298.782,254.187 298.506,254.585 297.862 C 255.080 297.061,254.865 296.959,253.905 297.537 C 252.748 298.235,252.722 298.110,253.757 296.831 C 255.107 295.163,262.776 293.804,272.577 293.495 C 275.920 293.390,279.952 292.978,281.538 292.580 C 284.944 291.725,307.767 288.950,316.865 288.285 C 322.005 287.909,323.074 288.077,322.423 289.160 C 321.769 290.247,321.906 290.265,323.150 289.259 C 323.994 288.576,325.005 288.338,325.396 288.730 C 325.788 289.122,326.484 288.835,326.943 288.093 C 328.213 286.038,329.813 287.629,331.166 292.292 C 334.532 303.895,346.092 309.402,359.334 305.710 C 361.500 305.106,362.013 305.224,361.510 306.210 C 361.148 306.919,361.492 306.719,362.275 305.766 C 363.057 304.812,363.878 304.137,364.099 304.266 C 364.319 304.394,364.422 304.347,364.326 304.159 C 364.230 303.972,365.693 301.800,367.576 299.332 C 369.460 296.865,371.298 293.660,371.662 292.210 C 372.266 289.806,372.392 289.747,373.092 291.536 C 373.839 293.448,373.861 293.445,373.930 291.450 C 373.968 290.322,373.594 288.972,373.097 288.450 C 372.600 287.928,371.924 285.250,371.594 282.500 C 370.560 273.886,370.367 272.982,369.580 273.090 C 369.158 273.148,367.618 272.078,366.157 270.712 C 360.142 265.089,351.443 263.645,340.762 266.497 C 338.583 267.079,337.905 266.848,337.439 265.364 C 336.803 263.342,333.063 254.470,329.486 246.500 C 328.252 243.750,326.477 239.781,325.541 237.680 C 324.605 235.579,324.085 233.222,324.384 232.442 C 324.683 231.662,324.482 231.131,323.938 231.262 C 322.694 231.561,316.807 217.945,317.452 216.263 C 317.714 215.582,317.382 215.131,316.714 215.262 C 316.046 215.393,315.500 214.600,315.500 213.500 C 315.500 212.400,314.884 211.017,314.132 210.427 C 312.554 209.190,310.037 202.471,310.015 199.437 C 310.002 197.623,313.226 189.752,316.025 184.764 C 316.561 183.809,317.000 182.604,317.000 182.087 C 317.000 181.569,318.625 177.628,320.611 173.329 C 322.597 169.029,325.109 163.260,326.194 160.508 C 327.278 157.756,328.505 155.054,328.919 154.502 C 329.334 153.951,330.697 150.917,331.949 147.760 C 333.200 144.603,334.544 142.218,334.936 142.460 C 335.328 142.703,335.615 141.910,335.574 140.700 C 335.533 139.490,336.016 138.597,336.647 138.716 C 337.279 138.835,337.594 138.160,337.350 137.216 C 336.485 133.885,339.433 131.359,342.358 132.924 C 346.004 134.875,363.560 134.722,362.344 132.750 C 361.938 132.090,363.337 131.627,365.108 131.834 C 365.443 131.873,367.018 130.481,368.608 128.741 C 370.199 127.000,370.712 126.177,369.750 126.911 C 367.505 128.622,367.536 128.431,370.420 122.747 C 371.847 119.933,373.074 118.505,373.427 119.247 C 373.754 119.936,373.750 119.375,373.418 118.000 C 373.085 116.625,372.612 114.150,372.366 112.500 C 370.892 102.622,367.952 97.947,361.305 94.914 C 353.618 91.407,340.349 93.259,336.050 98.439 C 335.348 99.286,334.305 99.688,333.732 99.334 C 333.128 98.961,332.990 99.175,333.405 99.845 C 333.797 100.480,333.754 101.556,333.309 102.236 C 332.864 102.916,331.822 105.503,330.993 107.986 L 329.486 112.500 324.993 112.170 C 322.522 111.988,320.091 111.444,319.591 110.961 C 319.091 110.477,316.728 110.350,314.339 110.677 C 311.950 111.005,307.409 110.776,304.248 110.170 C 301.087 109.564,291.975 108.372,284.000 107.521 C 253.959 104.317,253.322 104.184,251.094 100.653 C 250.000 98.919,247.537 95.270,245.620 92.545 C 243.704 89.819,242.400 87.162,242.722 86.640 C 243.045 86.118,242.840 85.981,242.268 86.334 C 240.901 87.179,238.629 84.409,239.515 82.976 C 239.900 82.353,239.390 81.639,238.351 81.349 C 236.767 80.907,225.677 67.013,221.000 59.612 C 220.175 58.306,218.224 55.629,216.664 53.662 C 214.960 51.513,214.126 49.570,214.575 48.793 C 214.985 48.082,214.948 47.838,214.491 48.252 C 213.519 49.135,210.000 46.220,210.000 44.532 C 210.000 42.823,215.510 37.845,216.414 38.736 C 216.841 39.156,217.053 38.825,216.885 38.000 C 216.718 37.175,217.200 35.377,217.957 34.004 C 219.966 30.361,219.778 17.948,217.667 14.934 C 215.694 12.118,215.500 10.582,217.250 11.633 C 218.110 12.149,218.074 11.859,217.137 10.703 C 216.387 9.778,215.482 9.202,215.126 9.422 C 213.885 10.189,210.790 7.148,211.554 5.912 C 212.041 5.125,211.892 4.949,211.135 5.417 C 209.793 6.246,202.763 4.193,203.402 3.159 C 203.633 2.784,201.138 2.442,197.858 2.397 C 194.578 2.353,192.349 2.598,192.905 2.942 M205.953 14.629 C 207.267 16.033,207.275 16.161,206.000 15.481 C 205.175 15.040,204.800 15.014,205.167 15.423 C 205.533 15.832,206.049 16.017,206.312 15.833 C 208.119 14.574,211.000 19.728,211.000 24.222 C 211.000 37.655,194.458 42.509,187.694 31.060 C 180.864 19.498,196.954 5.019,205.953 14.629 M206.046 53.250 C 208.972 57.237,214.578 64.775,218.504 70.000 C 222.430 75.225,229.872 85.350,235.042 92.500 C 250.615 114.037,246.305 111.727,277.000 114.990 C 322.607 119.839,330.962 121.061,332.020 123.038 C 332.882 124.647,330.742 130.522,323.477 146.500 C 319.863 154.449,307.000 184.065,307.000 184.437 C 307.000 184.670,305.650 187.777,304.000 191.342 C 299.891 200.218,299.709 199.025,307.990 217.500 C 312.082 226.632,314.478 232.164,316.000 236.000 C 316.982 238.475,318.918 242.975,320.303 246.000 C 327.621 261.994,332.853 275.218,332.366 276.489 C 331.511 278.717,328.481 279.201,291.500 283.025 C 274.041 284.830,264.156 285.986,256.755 287.089 L 249.009 288.243 243.781 295.372 C 236.758 304.948,214.170 335.523,206.600 345.700 C 198.675 356.355,198.731 356.365,188.329 342.250 C 183.566 335.787,175.906 325.468,171.307 319.318 C 166.707 313.169,161.494 306.128,159.722 303.672 C 157.950 301.217,154.617 296.745,152.316 293.736 L 148.133 288.265 140.316 287.111 C 132.557 285.965,122.318 284.743,106.000 283.015 C 62.949 278.456,62.185 278.232,65.929 271.236 C 66.441 270.281,69.856 262.525,73.518 254.000 C 77.181 245.475,80.775 237.150,81.504 235.500 C 82.234 233.850,85.584 226.200,88.949 218.500 C 92.314 210.800,95.578 203.488,96.202 202.250 C 97.018 200.634,97.038 199.366,96.272 197.750 C 93.833 192.598,90.000 183.917,90.000 183.542 C 90.000 183.321,88.640 180.202,86.979 176.612 C 85.317 173.022,81.982 165.453,79.568 159.792 C 71.942 141.908,67.904 132.600,66.349 129.323 C 62.575 121.370,63.105 121.170,97.500 117.521 C 137.179 113.312,146.602 112.038,148.274 110.656 C 149.461 109.675,162.033 92.922,180.884 67.203 C 198.828 42.722,198.466 42.922,206.046 53.250 M54.576 104.251 C 58.953 108.262,60.135 114.088,57.639 119.349 C 52.824 129.496,37.067 128.632,33.896 118.046 C 29.974 104.957,44.658 95.161,54.576 104.251 M354.000 101.906 C 354.000 102.405,354.831 102.595,355.847 102.330 C 357.869 101.801,362.503 106.562,364.128 110.838 C 365.230 113.736,363.719 119.175,361.257 121.170 C 359.875 122.290,359.750 122.278,360.463 121.095 C 361.041 120.135,360.939 119.920,360.138 120.415 C 359.494 120.813,359.189 121.497,359.460 121.935 C 360.527 123.662,356.036 126.180,351.775 126.245 C 347.443 126.310,342.000 123.814,342.000 121.763 C 342.000 121.208,342.788 121.373,343.750 122.128 C 345.323 123.361,345.366 123.329,344.177 121.809 C 343.449 120.880,342.290 120.335,341.600 120.600 C 339.216 121.515,337.589 113.920,339.294 109.838 C 341.178 105.329,344.971 101.759,347.246 102.354 C 348.212 102.607,348.751 102.405,348.442 101.907 C 348.134 101.408,349.259 101.000,350.941 101.000 C 352.623 101.000,354.000 101.408,354.000 101.906 M187.500 128.597 C 108.790 140.092,106.985 254.158,185.254 270.487 C 254.136 284.857,301.011 192.870,248.000 147.353 C 246.625 146.172,244.375 144.220,243.000 143.015 C 230.919 132.427,205.857 125.917,187.500 128.597 M216.889 138.029 C 276.284 156.646,278.370 238.799,220.000 260.550 C 211.164 263.843,189.189 264.741,181.500 262.123 C 120.307 241.291,118.324 159.802,178.500 138.817 C 188.962 135.168,206.608 134.806,216.889 138.029 M52.094 274.549 C 61.400 279.361,61.041 292.906,51.486 297.439 C 38.500 303.602,26.869 287.289,36.885 276.961 C 40.945 272.775,46.852 271.838,52.094 274.549 M358.459 275.401 C 364.220 279.795,365.718 284.978,362.880 290.701 C 357.389 301.774,342.802 301.021,338.989 289.467 C 335.393 278.569,349.372 268.470,358.459 275.401 M203.800 363.405 C 212.907 368.144,214.078 378.493,206.237 384.956 C 197.872 391.851,186.000 385.977,186.000 374.942 C 186.000 365.313,195.559 359.118,203.800 363.405 M209.272 375.000 C 209.272 377.475,209.467 378.488,209.706 377.250 C 209.944 376.012,209.944 373.988,209.706 372.750 C 209.467 371.512,209.272 372.525,209.272 375.000 " stroke="none" fill="#000000" fill-rule="evenodd"></path></g></svg>