<svg id="svg" version="1.1" xmlns="http://www.w3.org/2000/svg" xmlns:xlink="http://www.w3.org/1999/xlink" width="400" height="400" viewBox="0, 0, 400,400"><g id="svgg"><path id="path0" d="M76.512 5.148 C 54.432 7.976,23.803 25.501,26.436 33.799 C 26.918 35.318,64.438 72.627,92.082 99.075 C 100.073 106.721,101.189 108.768,98.556 110.953 C 96.911 112.319,95.767 111.329,64.572 81.562 C 40.065 58.177,41.054 59.110,36.183 54.750 C 29.356 48.638,23.738 51.652,16.972 65.055 C -0.847 100.355,7.124 136.281,40.336 170.365 C 48.525 178.768,48.461 178.657,47.106 182.220 C 45.964 185.225,47.203 186.906,53.000 190.216 C 74.785 202.655,111.086 203.404,134.353 191.895 C 138.273 189.956,141.739 189.000,144.853 189.001 L 149.500 189.002 235.176 274.751 L 320.852 360.500 321.500 365.500 C 324.002 384.790,336.825 396.467,355.532 396.489 C 398.962 396.541,402.580 333.731,359.445 328.568 L 353.500 327.856 267.360 241.775 C 171.227 145.709,177.239 152.688,181.451 142.054 C 209.390 71.531,151.176 -4.416,76.512 5.148 M104.500 16.130 C 158.406 25.507,190.701 82.302,172.473 135.668 C 165.163 157.069,156.160 145.382,260.364 249.750 L 349.474 339.000 355.115 339.000 C 376.986 339.000,387.624 363.867,372.442 379.502 C 357.254 395.144,332.036 383.917,332.004 361.500 L 331.997 356.500 244.710 269.185 C 177.713 202.165,156.387 181.400,152.962 179.850 C 147.324 177.299,139.347 177.719,133.000 180.902 C 112.688 191.087,89.821 192.580,67.903 185.151 C 60.220 182.547,60.409 181.500,71.211 166.922 C 76.320 160.027,82.525 151.545,85.000 148.073 C 87.475 144.602,89.971 141.253,90.548 140.631 C 91.124 140.009,93.106 137.293,94.952 134.595 C 96.798 131.897,101.180 125.840,104.689 121.134 C 115.291 106.913,115.242 106.718,96.488 88.500 C 63.998 56.940,41.000 33.705,41.000 32.443 C 41.000 27.967,61.328 18.460,76.000 16.075 C 87.837 14.150,93.176 14.161,104.500 16.130 M37.259 70.682 C 40.691 73.808,51.600 84.103,61.500 93.561 C 71.400 103.019,81.862 112.922,84.750 115.568 C 90.779 121.093,91.101 122.671,87.128 127.215 C 85.548 129.022,83.411 131.873,82.378 133.550 C 77.284 141.824,56.427 169.000,55.171 169.000 C 50.801 169.000,31.344 144.045,24.749 129.982 C 14.934 109.054,16.738 81.184,28.842 66.750 C 30.751 64.474,30.111 64.175,37.259 70.682 M5.389 101.500 C 5.390 108.650,5.550 111.444,5.742 107.708 C 5.935 103.973,5.934 98.123,5.739 94.708 C 5.545 91.294,5.387 94.350,5.389 101.500 M88.206 202.741 C 91.895 202.932,98.195 202.934,102.206 202.743 C 106.218 202.553,103.200 202.396,95.500 202.395 C 87.800 202.393,84.518 202.549,88.206 202.741 " stroke="none" fill="#000000" fill-rule="evenodd"></path></g></svg>