<svg id="svg" version="1.1" xmlns="http://www.w3.org/2000/svg" xmlns:xlink="http://www.w3.org/1999/xlink" width="400" height="400" viewBox="0, 0, 400,400"><g id="svgg"><path id="path0" d="M99.500 73.739 C 98.400 74.005,97.140 74.848,96.700 75.611 C 96.260 76.375,95.258 77.000,94.473 77.000 C 92.026 77.000,89.732 81.834,89.479 87.523 C 89.325 90.997,89.603 92.745,90.248 92.347 C 90.804 92.003,91.072 92.283,90.844 92.969 C 90.615 93.655,91.876 95.796,93.645 97.728 L 96.861 101.239 108.181 101.370 C 116.649 101.467,119.437 101.815,119.250 102.750 C 119.113 103.438,119.450 104.000,120.000 104.000 C 120.550 104.000,121.000 104.906,121.000 106.014 C 121.000 108.028,121.231 108.640,124.311 114.797 C 125.219 116.610,125.482 117.798,124.898 117.437 C 124.313 117.076,124.529 118.122,125.378 119.763 C 126.226 121.404,126.601 123.101,126.210 123.534 C 125.820 123.966,126.015 124.026,126.645 123.666 C 128.060 122.858,129.156 125.430,128.323 127.601 C 127.985 128.483,128.336 129.589,129.104 130.064 C 129.872 130.539,130.605 132.181,130.733 133.713 C 131.116 138.283,131.298 138.934,132.062 138.462 C 133.107 137.816,134.043 140.724,133.362 142.500 C 133.045 143.325,133.222 144.000,133.754 144.000 C 134.287 144.000,134.508 145.125,134.245 146.500 C 133.982 147.875,133.343 149.000,132.824 149.000 C 132.306 149.000,132.143 149.422,132.462 149.939 C 132.781 150.455,132.470 151.242,131.771 151.689 C 131.072 152.135,130.500 153.063,130.500 153.750 C 130.500 154.438,130.106 154.963,129.624 154.917 C 128.243 154.787,125.116 160.138,125.693 161.643 C 126.007 162.460,125.532 163.000,124.500 163.000 C 123.369 163.000,122.987 163.523,123.376 164.538 C 123.701 165.384,123.356 166.310,122.609 166.597 C 121.863 166.883,120.408 168.738,119.376 170.719 C 115.675 177.825,113.440 179.518,110.395 177.523 C 108.942 176.571,108.061 176.289,108.436 176.896 C 108.811 177.503,108.641 178.000,108.059 178.000 C 107.477 178.000,107.000 177.580,107.000 177.067 C 107.000 176.258,103.791 174.693,101.833 174.549 C 101.467 174.522,100.829 174.162,100.417 173.750 C 100.004 173.338,98.167 173.000,96.333 173.000 C 94.500 173.000,93.000 172.576,93.000 172.057 C 93.000 171.539,92.100 171.288,91.000 171.500 C 89.900 171.712,89.000 171.461,89.000 170.943 C 89.000 170.407,84.033 170.000,77.500 170.000 C 69.699 170.000,66.000 170.359,66.000 171.117 C 66.000 171.741,65.118 172.003,64.000 171.710 C 62.900 171.423,62.000 171.534,62.000 171.958 C 62.000 172.381,59.967 173.007,57.483 173.347 C 54.998 173.688,51.511 174.737,49.733 175.679 C 47.955 176.620,45.898 177.494,45.162 177.620 C 44.427 177.746,43.020 178.577,42.037 179.466 C 41.055 180.356,39.856 180.953,39.375 180.793 C 38.028 180.347,31.026 184.769,30.369 186.480 C 30.048 187.316,29.159 188.000,28.393 188.000 C 27.627 188.000,27.000 188.377,27.000 188.837 C 27.000 189.912,19.336 197.993,18.290 198.021 C 17.048 198.055,12.000 205.636,12.000 207.469 C 12.000 208.376,11.545 208.837,10.988 208.493 C 10.427 208.146,9.706 209.222,9.368 210.911 C 9.033 212.585,8.165 214.448,7.439 215.051 C 6.713 215.653,6.394 216.862,6.729 217.737 C 7.122 218.759,6.940 219.081,6.220 218.636 C 5.504 218.193,4.856 219.304,4.419 221.722 C 4.044 223.800,3.344 226.262,2.864 227.193 C 2.079 228.716,1.098 237.601,0.677 247.000 C 0.591 248.925,0.882 252.232,1.324 254.348 C 1.935 257.274,1.835 258.016,0.909 257.444 C 0.095 256.941,-0.051 257.109,0.470 257.951 C 0.898 258.644,1.457 260.851,1.712 262.855 C 1.967 264.860,2.835 267.534,3.642 268.798 C 4.449 270.062,5.033 271.862,4.940 272.798 C 4.599 276.206,5.022 278.104,5.989 277.507 C 6.540 277.166,6.731 277.537,6.421 278.346 C 6.115 279.143,6.843 280.707,8.039 281.821 C 9.234 282.935,9.942 284.284,9.612 284.819 C 9.282 285.353,9.712 286.059,10.569 286.388 C 11.426 286.717,11.847 287.439,11.504 287.993 C 11.162 288.547,11.370 289.000,11.966 289.000 C 12.562 289.000,13.477 290.125,14.000 291.500 C 14.523 292.875,15.412 294.000,15.975 294.000 C 16.539 294.000,17.000 294.563,17.000 295.252 C 17.000 296.879,28.929 309.000,30.530 309.000 C 31.205 309.000,32.507 310.012,33.424 311.250 C 34.342 312.488,34.774 312.825,34.385 312.000 C 33.996 311.175,34.885 311.600,36.360 312.945 C 37.836 314.289,39.776 315.497,40.671 315.628 C 41.567 315.759,42.675 316.459,43.135 317.184 C 43.594 317.908,43.983 318.050,44.000 317.500 C 44.017 316.950,44.402 317.085,44.855 317.800 C 45.309 318.515,46.764 319.174,48.090 319.264 C 49.415 319.354,51.095 320.007,51.822 320.715 C 52.555 321.428,54.162 321.746,55.429 321.429 C 56.709 321.107,58.325 321.436,59.106 322.178 C 62.185 325.098,91.060 325.193,95.609 322.297 C 96.769 321.559,98.473 321.244,99.396 321.599 C 100.319 321.953,101.845 321.592,102.787 320.796 C 103.729 320.000,105.585 319.293,106.910 319.225 C 108.236 319.156,109.586 318.740,109.910 318.300 C 110.235 317.860,111.175 317.354,112.000 317.175 C 112.825 316.996,114.513 315.905,115.750 314.751 C 116.988 313.596,118.000 313.041,118.000 313.517 C 118.000 313.993,118.661 313.509,119.468 312.441 C 120.276 311.374,120.951 310.887,120.968 311.361 C 120.986 311.834,121.787 311.363,122.750 310.314 C 123.713 309.264,124.073 309.102,123.552 309.953 C 123.030 310.804,126.064 308.125,130.294 304.000 C 134.523 299.875,137.987 295.953,137.992 295.285 C 137.996 294.617,138.913 293.582,140.028 292.985 C 141.143 292.388,141.792 291.472,141.469 290.950 C 141.146 290.427,141.249 290.000,141.697 290.000 C 142.145 290.000,143.131 288.538,143.888 286.750 C 144.645 284.962,145.838 283.030,146.541 282.456 C 147.243 281.883,147.971 280.533,148.159 279.456 C 148.346 278.380,148.885 277.219,149.356 276.875 C 149.827 276.532,150.315 274.955,150.439 273.372 C 150.564 271.788,151.191 269.512,151.833 268.312 C 152.475 267.113,153.000 265.292,153.000 264.266 C 153.000 263.240,153.563 261.794,154.250 261.053 C 155.250 259.976,155.250 259.848,154.250 260.412 C 153.483 260.845,153.000 260.516,153.000 259.559 C 153.000 257.758,154.562 257.483,155.566 259.107 C 156.043 259.878,156.510 259.803,157.110 258.857 C 157.742 257.858,157.973 257.830,157.985 258.750 C 157.995 259.558,159.552 260.000,162.385 260.000 L 166.770 260.000 166.253 266.750 C 165.968 270.462,166.083 273.175,166.507 272.777 C 166.932 272.379,168.004 273.498,168.890 275.263 C 169.775 277.028,171.509 278.968,172.743 279.575 C 173.977 280.181,175.889 281.495,176.993 282.494 C 178.097 283.493,179.000 283.960,179.000 283.533 C 179.000 283.105,179.563 283.213,180.250 283.773 C 182.407 285.530,195.000 283.959,195.000 281.933 C 195.000 281.420,195.675 281.000,196.500 281.000 C 197.325 281.000,198.000 280.355,198.000 279.567 C 198.000 278.779,198.926 277.841,200.057 277.482 C 203.641 276.344,204.821 269.954,203.610 258.250 C 203.219 254.476,203.411 253.000,204.293 253.000 C 205.360 253.000,208.364 249.400,208.464 248.000 C 208.484 247.725,209.400 246.551,210.500 245.390 C 213.982 241.717,218.446 235.998,220.014 233.201 C 221.711 230.173,224.649 226.483,227.199 224.179 C 228.133 223.334,228.667 222.270,228.385 221.815 C 228.104 221.359,228.577 220.716,229.437 220.386 C 230.296 220.056,231.000 219.214,231.000 218.515 C 231.000 217.816,232.012 216.493,233.250 215.576 C 234.488 214.658,234.825 214.233,234.000 214.631 C 233.175 215.028,234.412 213.475,236.750 211.178 C 239.088 208.881,241.000 206.375,241.000 205.608 C 241.000 204.841,241.667 203.958,242.483 203.645 C 243.356 203.310,243.714 202.418,243.353 201.478 C 242.937 200.394,243.421 199.703,244.859 199.327 C 246.024 199.022,246.748 198.401,246.468 197.948 C 246.187 197.494,246.539 196.758,247.250 196.311 C 247.961 195.865,249.085 194.263,249.750 192.750 C 250.414 191.238,251.642 190.000,252.479 190.000 C 253.315 190.000,254.000 189.325,254.000 188.500 C 254.000 187.675,254.450 187.000,255.000 187.000 C 255.550 187.000,255.947 186.662,255.882 186.250 C 255.575 184.309,256.089 182.937,256.928 183.456 C 257.438 183.771,258.174 183.027,258.563 181.803 C 258.951 180.578,260.325 178.745,261.616 177.730 C 262.906 176.715,263.858 175.564,263.731 175.173 C 263.604 174.781,264.738 173.124,266.250 171.490 C 267.762 169.857,269.000 168.253,269.000 167.927 C 269.000 167.600,270.770 165.416,272.933 163.073 C 275.472 160.323,276.660 158.226,276.286 157.156 C 275.845 155.897,275.997 155.768,276.922 156.619 C 277.591 157.235,278.233 158.360,278.347 159.119 C 278.462 159.879,278.828 160.950,279.161 161.500 C 279.493 162.050,280.087 164.075,280.480 166.000 C 280.874 167.925,282.219 171.300,283.469 173.500 C 285.039 176.262,285.495 178.119,284.941 179.500 C 284.501 180.600,284.109 181.076,284.070 180.559 C 284.032 180.041,283.339 180.491,282.532 181.559 C 281.724 182.626,281.049 183.134,281.032 182.687 C 281.014 182.240,279.313 183.473,277.250 185.428 C 275.188 187.383,272.975 188.987,272.334 188.991 C 270.531 189.005,263.255 196.256,262.793 198.500 C 262.566 199.600,261.845 200.387,261.191 200.250 C 260.113 200.024,259.569 201.270,259.882 203.250 C 259.947 203.662,259.602 204.000,259.117 204.000 C 258.631 204.000,257.986 204.945,257.684 206.101 C 257.381 207.257,256.655 207.905,256.067 207.542 C 255.019 206.894,254.582 208.184,254.948 210.850 C 255.050 211.593,254.667 211.912,254.096 211.559 C 253.516 211.201,252.756 212.149,252.371 213.709 C 251.993 215.244,251.041 217.493,250.256 218.706 C 249.470 219.919,249.135 221.410,249.512 222.019 C 249.888 222.628,249.463 223.936,248.567 224.926 C 245.728 228.063,244.584 254.741,246.848 265.000 C 248.529 272.614,250.211 278.000,250.909 278.000 C 251.275 278.000,251.646 278.945,251.733 280.100 C 251.820 281.255,252.703 282.815,253.695 283.568 C 254.688 284.321,255.137 284.951,254.693 284.968 C 253.348 285.021,257.335 291.000,258.716 291.000 C 259.422 291.000,260.000 291.691,260.000 292.535 C 260.000 294.875,263.081 299.068,264.264 298.337 C 264.893 297.948,265.008 298.177,264.554 298.913 C 264.074 299.690,264.560 300.334,265.888 300.681 C 267.037 300.982,267.731 301.626,267.430 302.114 C 267.128 302.601,267.584 303.000,268.441 303.000 C 269.298 303.000,270.000 303.648,270.000 304.441 C 270.000 305.234,270.520 306.203,271.155 306.595 C 271.915 307.066,272.057 306.830,271.570 305.905 C 271.164 305.132,272.107 305.888,273.666 307.584 C 276.082 310.213,281.342 314.153,283.000 314.575 C 285.870 315.306,290.000 317.384,290.000 318.098 C 290.000 318.594,291.012 319.014,292.250 319.032 C 293.488 319.049,295.376 319.726,296.448 320.536 C 297.519 321.347,299.238 321.742,300.269 321.415 C 301.300 321.087,302.899 321.471,303.822 322.268 C 307.154 325.143,336.080 325.231,340.698 322.379 C 341.906 321.633,343.559 321.277,344.369 321.588 C 345.180 321.899,346.891 321.579,348.172 320.876 C 349.452 320.173,351.356 319.456,352.402 319.282 C 353.448 319.108,354.843 318.230,355.500 317.330 C 356.158 316.431,357.187 315.998,357.787 316.368 C 358.386 316.739,359.341 316.245,359.908 315.271 C 360.475 314.297,360.953 313.868,360.970 314.318 C 361.007 315.325,366.830 311.286,369.326 308.522 C 370.331 307.410,370.848 307.175,370.477 308.000 C 370.105 308.825,372.208 306.943,375.150 303.817 C 383.237 295.226,387.464 290.098,387.830 288.432 C 388.012 287.606,389.249 285.755,390.580 284.319 C 392.814 281.908,393.521 279.571,393.052 276.150 C 392.950 275.407,393.346 275.096,393.933 275.459 C 394.996 276.116,395.472 274.217,395.147 270.617 C 395.053 269.581,395.385 268.231,395.884 267.617 C 397.331 265.837,398.915 259.066,398.015 258.509 C 397.564 258.230,397.805 255.977,398.550 253.501 C 399.295 251.026,399.518 249.000,399.047 249.000 C 398.575 249.000,398.179 244.683,398.166 239.408 C 398.148 232.075,397.769 229.402,396.556 228.062 C 395.683 227.097,395.047 225.451,395.143 224.404 C 395.486 220.644,395.010 218.876,393.845 219.595 C 393.155 220.022,392.961 219.871,393.364 219.220 C 394.047 218.114,390.255 209.778,388.789 209.165 C 388.348 208.980,388.242 208.418,388.553 207.915 C 388.864 207.412,388.615 207.000,388.000 207.000 C 387.385 207.000,387.167 206.539,387.515 205.975 C 387.864 205.412,387.553 205.074,386.824 205.225 C 386.096 205.376,385.500 204.825,385.500 204.000 C 385.500 203.175,384.684 202.166,383.686 201.758 C 382.688 201.351,382.140 200.583,382.468 200.053 C 383.221 198.833,379.091 194.000,377.295 194.000 C 376.555 194.000,375.523 192.875,375.000 191.500 C 374.477 190.125,373.476 188.985,372.775 188.967 C 371.087 188.923,367.000 185.471,367.000 184.090 C 367.000 183.490,365.923 183.000,364.607 183.000 C 363.291 183.000,361.944 182.296,361.614 181.437 C 361.284 180.577,360.561 180.153,360.007 180.496 C 359.453 180.838,359.000 180.615,359.000 180.000 C 359.000 179.385,358.550 179.160,358.000 179.500 C 357.450 179.840,357.000 179.751,357.000 179.303 C 357.000 177.798,345.649 173.681,338.250 172.501 C 335.913 172.129,334.000 171.414,334.000 170.912 C 334.000 170.410,328.573 170.000,321.941 170.000 C 314.990 170.000,310.119 170.384,310.442 170.906 C 310.934 171.702,302.999 173.364,300.590 172.970 C 300.089 172.888,299.303 173.494,298.842 174.317 C 298.347 175.202,297.190 175.601,296.014 175.293 C 294.918 175.007,294.247 174.410,294.520 173.967 C 294.794 173.524,294.339 172.482,293.509 171.652 C 292.679 170.822,292.000 169.041,292.000 167.694 C 292.000 166.347,291.325 164.685,290.500 164.000 C 289.675 163.315,289.000 161.487,289.000 159.937 C 289.000 158.386,288.550 156.840,288.000 156.500 C 287.450 156.160,287.007 155.346,287.015 154.691 C 287.025 153.975,287.418 154.099,288.000 155.000 C 288.533 155.825,288.976 156.038,288.985 155.473 C 288.993 154.907,288.279 153.416,287.398 152.158 C 286.517 150.900,286.063 149.604,286.389 149.277 C 286.716 148.951,286.440 148.030,285.777 147.231 C 285.114 146.432,284.414 144.602,284.221 143.164 C 284.029 141.726,283.412 139.996,282.850 139.319 C 282.288 138.642,282.099 137.649,282.430 137.113 C 282.762 136.577,282.568 135.851,282.000 135.500 C 281.432 135.149,281.215 134.461,281.518 133.972 C 281.820 133.482,281.635 132.276,281.106 131.291 C 280.178 129.563,277.000 119.711,277.000 118.562 C 277.000 118.253,277.873 118.000,278.941 118.000 C 280.009 118.000,281.177 117.523,281.536 116.941 C 281.896 116.358,283.161 115.958,284.346 116.052 C 288.808 116.403,292.099 115.969,291.561 115.099 C 291.255 114.604,292.660 114.245,294.684 114.302 C 296.748 114.361,298.541 113.878,298.766 113.203 C 299.526 110.922,312.000 112.805,312.000 115.201 C 312.000 115.640,312.816 116.000,313.813 116.000 C 314.953 116.000,316.130 117.284,316.982 119.455 C 317.728 121.355,318.661 122.710,319.055 122.466 C 320.164 121.781,320.956 125.968,320.320 129.149 C 320.007 130.717,319.281 132.000,318.708 132.000 C 318.135 132.000,317.929 132.263,318.250 132.583 C 318.571 132.904,318.076 133.917,317.150 134.833 C 313.474 138.474,310.356 139.672,304.000 139.889 C 295.551 140.177,292.232 144.089,296.671 148.528 C 298.526 150.384,315.477 150.314,316.820 148.445 C 317.194 147.925,318.175 147.351,319.000 147.169 C 321.009 146.725,327.000 140.112,327.000 138.339 C 327.000 137.564,327.640 135.933,328.423 134.715 C 331.437 130.024,328.384 110.408,324.969 112.519 C 324.449 112.841,324.291 112.406,324.618 111.552 C 325.004 110.546,324.648 110.000,323.607 110.000 C 322.723 110.000,321.084 109.084,319.964 107.964 C 318.843 106.843,317.424 106.238,316.809 106.618 C 316.140 107.032,315.970 106.857,316.386 106.184 C 316.814 105.493,316.005 104.801,314.291 104.391 C 312.756 104.024,310.940 103.283,310.255 102.744 C 309.571 102.205,308.130 101.994,307.053 102.276 C 305.977 102.557,304.962 102.447,304.798 102.030 C 304.392 100.997,295.914 102.279,295.972 103.364 C 295.997 103.839,293.934 104.392,291.387 104.593 C 288.840 104.794,286.231 105.393,285.589 105.926 C 284.948 106.458,282.528 107.006,280.211 107.143 C 277.895 107.279,276.000 107.801,276.000 108.302 C 276.000 108.804,275.312 108.950,274.470 108.627 C 271.549 107.506,265.205 110.878,265.360 113.469 C 265.437 114.755,265.810 115.617,266.189 115.382 C 266.569 115.148,266.846 115.754,266.806 116.728 C 266.766 117.703,267.066 119.287,267.473 120.250 C 268.056 121.625,267.710 122.011,265.857 122.051 C 261.248 122.150,254.473 123.238,252.729 124.158 C 251.755 124.672,250.521 124.822,249.985 124.491 C 248.584 123.625,232.767 126.041,231.087 127.377 C 230.028 128.219,229.569 128.186,229.252 127.244 C 229.019 126.553,228.492 126.196,228.080 126.450 C 227.669 126.705,225.009 127.141,222.170 127.419 C 219.332 127.697,216.180 128.368,215.166 128.911 C 214.153 129.453,210.663 129.886,207.412 129.873 C 204.160 129.860,200.276 130.317,198.779 130.889 C 197.283 131.460,194.133 131.989,191.779 132.062 C 189.426 132.136,185.588 132.265,183.250 132.348 C 180.912 132.432,179.000 132.894,179.000 133.375 C 179.000 133.856,177.537 133.969,175.750 133.626 C 173.283 133.153,172.862 133.262,174.000 134.076 C 175.127 134.883,174.570 134.996,171.761 134.532 C 168.162 133.937,161.427 135.177,157.727 137.116 C 156.620 137.696,155.269 137.679,154.130 137.070 C 153.127 136.533,151.900 136.455,151.403 136.897 C 150.190 137.977,141.862 137.033,142.565 135.895 C 142.869 135.403,142.677 135.000,142.138 135.000 C 141.600 135.000,140.811 133.537,140.386 131.750 C 139.961 129.963,139.531 128.162,139.431 127.750 C 139.332 127.338,139.137 126.775,139.000 126.500 C 138.863 126.225,138.672 125.662,138.576 125.250 C 137.886 122.280,136.711 120.000,135.870 120.000 C 135.322 120.000,135.004 119.213,135.162 118.250 C 135.321 117.287,135.097 115.938,134.666 115.250 C 134.235 114.563,134.166 114.000,134.512 114.000 C 134.859 114.000,134.420 113.278,133.537 112.395 C 132.651 111.508,132.186 109.989,132.500 109.000 C 132.812 108.016,132.378 106.520,131.534 105.677 C 127.317 101.460,129.065 100.888,145.584 101.081 L 161.167 101.263 164.084 98.070 C 167.038 94.834,167.823 93.373,166.000 94.500 C 165.389 94.877,165.000 93.346,165.000 90.567 C 165.000 84.573,162.124 80.997,157.845 81.672 C 156.211 81.929,154.293 81.658,153.584 81.070 C 152.327 80.027,142.236 78.585,136.781 78.668 C 135.285 78.691,134.229 78.438,134.435 78.105 C 134.871 77.397,127.247 76.608,121.531 76.770 C 119.348 76.831,117.098 76.500,116.531 76.035 C 115.964 75.569,113.025 74.895,110.000 74.537 C 106.975 74.178,103.825 73.744,103.000 73.570 C 102.175 73.397,100.600 73.473,99.500 73.739 M113.083 83.942 C 116.062 84.460,123.900 85.607,130.500 86.490 C 163.073 90.850,162.887 92.412,129.751 92.781 C 101.755 93.093,100.391 92.953,98.863 89.599 C 96.180 83.711,100.918 81.826,113.083 83.942 M271.359 134.250 C 272.158 136.037,272.854 138.287,272.906 139.250 C 272.958 140.213,273.075 142.275,273.167 143.833 C 273.326 146.541,269.494 151.831,267.786 151.262 C 267.393 151.131,267.357 151.767,267.706 152.676 C 268.131 153.784,267.955 154.090,267.170 153.605 C 266.504 153.194,265.999 153.446,265.998 154.191 C 265.996 154.911,264.647 157.075,263.000 159.000 C 261.353 160.925,260.004 162.870,260.002 163.321 C 259.998 164.730,257.278 166.941,256.459 166.202 C 256.030 165.816,256.005 166.066,256.403 166.757 C 256.825 167.491,256.478 168.263,255.569 168.612 C 254.712 168.941,254.260 169.612,254.565 170.105 C 254.869 170.597,254.341 171.000,253.392 171.000 C 252.443 171.000,251.951 171.284,252.298 171.631 C 253.181 172.514,251.088 176.172,250.063 175.539 C 249.602 175.254,249.288 175.804,249.363 176.761 C 249.441 177.754,248.911 178.375,248.127 178.209 C 247.219 178.017,246.969 178.478,247.389 179.570 C 247.829 180.718,247.599 181.060,246.636 180.690 C 245.777 180.361,245.296 180.786,245.374 181.805 C 245.443 182.711,244.975 183.463,244.333 183.476 C 243.692 183.489,242.792 183.910,242.333 184.410 C 241.849 184.939,242.024 185.019,242.750 184.601 C 243.438 184.206,244.000 184.303,244.000 184.819 C 244.000 186.277,241.411 188.068,240.498 187.241 C 240.048 186.834,239.981 187.026,240.349 187.669 C 240.717 188.313,240.452 189.457,239.759 190.212 C 239.067 190.967,237.979 192.465,237.343 193.542 C 236.707 194.619,235.661 195.376,235.019 195.225 C 234.377 195.074,234.149 195.431,234.512 196.019 C 235.378 197.420,233.076 200.165,231.732 199.334 C 231.136 198.966,230.989 199.173,231.388 199.819 C 231.771 200.439,231.166 201.734,230.043 202.696 C 228.919 203.657,228.000 204.874,228.000 205.399 C 228.000 205.925,226.537 207.674,224.750 209.288 C 222.963 210.901,222.375 211.609,223.445 210.861 C 224.514 210.112,223.477 212.049,221.139 215.164 C 218.802 218.280,216.211 221.089,215.381 221.407 C 214.552 221.725,214.124 222.392,214.431 222.888 C 214.738 223.384,214.316 224.048,213.494 224.364 C 212.672 224.679,212.000 225.782,212.000 226.814 C 212.000 228.736,208.740 232.406,207.836 231.502 C 207.559 231.226,207.333 231.611,207.333 232.358 C 207.333 234.308,201.729 241.953,200.281 241.979 C 199.611 241.990,199.260 242.563,199.502 243.250 C 200.268 245.433,196.302 249.231,194.013 248.504 C 192.890 248.148,192.194 247.495,192.467 247.053 C 192.740 246.611,190.947 246.477,188.482 246.755 C 185.098 247.136,183.996 246.922,183.985 245.880 C 183.972 244.708,183.838 244.708,183.096 245.878 C 182.037 247.551,179.658 246.333,180.369 244.482 C 180.646 243.758,180.196 242.905,179.367 242.587 C 178.483 242.248,177.994 241.077,178.184 239.754 C 178.362 238.515,177.718 236.628,176.754 235.561 C 175.789 234.495,175.000 232.384,175.000 230.870 C 175.000 229.357,174.550 227.840,174.000 227.500 C 173.450 227.160,172.986 225.896,172.968 224.691 C 172.951 223.486,172.276 221.626,171.468 220.559 C 169.793 218.344,169.518 216.584,170.989 217.493 C 171.555 217.843,171.723 217.442,171.382 216.552 C 171.054 215.698,170.419 215.000,169.971 215.000 C 168.743 215.000,166.751 208.212,167.583 206.865 C 168.011 206.172,167.879 205.957,167.259 206.340 C 165.817 207.231,164.870 204.367,165.619 201.381 C 166.047 199.679,165.848 199.010,164.974 199.211 C 164.262 199.374,163.298 197.972,162.766 196.000 C 162.245 194.075,161.357 191.940,160.792 191.255 C 160.226 190.571,159.996 189.125,160.279 188.042 C 160.562 186.959,160.165 185.552,159.397 184.914 C 158.629 184.277,157.986 183.023,157.968 182.128 C 157.951 181.232,157.276 179.626,156.468 178.559 C 155.661 177.491,155.000 175.563,155.000 174.274 C 155.000 172.984,154.333 170.912,153.518 169.668 C 152.703 168.424,152.230 166.403,152.466 165.177 C 152.702 163.950,152.501 163.190,152.020 163.488 C 150.900 164.180,149.655 160.367,150.536 158.942 C 150.901 158.351,150.538 157.334,149.728 156.683 C 147.882 155.200,145.713 148.860,146.737 147.942 C 148.379 146.470,153.000 145.947,153.015 147.231 C 153.027 148.165,153.263 148.132,153.913 147.107 C 154.441 146.272,155.664 145.940,156.960 146.279 C 158.151 146.591,160.728 146.176,162.688 145.357 C 164.680 144.525,168.729 143.951,171.875 144.055 C 174.969 144.157,178.850 143.630,180.500 142.884 C 182.314 142.064,187.118 141.522,192.656 141.514 C 197.692 141.506,201.356 141.219,200.799 140.875 C 198.856 139.676,201.698 139.048,208.764 139.114 C 212.631 139.150,216.664 138.715,217.725 138.147 C 221.028 136.380,230.448 135.466,229.497 137.006 C 228.912 137.951,229.077 138.068,230.095 137.431 C 230.868 136.948,231.950 136.522,232.500 136.485 C 233.050 136.448,235.409 135.857,237.741 135.173 C 240.074 134.488,244.223 134.104,246.962 134.320 C 249.997 134.560,251.708 134.337,251.345 133.749 C 251.002 133.195,251.546 133.034,252.625 133.371 C 253.656 133.693,256.300 133.311,258.500 132.522 C 265.669 129.952,269.678 130.490,271.359 134.250 M142.724 165.250 C 143.889 168.688,146.262 175.325,147.997 180.000 C 149.733 184.675,151.381 189.400,151.660 190.500 C 151.939 191.600,152.552 193.400,153.022 194.500 C 153.493 195.600,155.244 200.550,156.915 205.500 C 158.585 210.450,160.608 216.300,161.411 218.500 C 175.031 255.825,175.071 253.684,160.818 250.670 C 153.710 249.167,154.344 250.072,152.974 239.485 C 150.518 220.518,143.852 206.737,130.812 193.669 C 120.566 183.401,121.193 185.013,125.175 179.163 C 126.921 176.599,129.171 173.281,130.175 171.790 C 131.179 170.300,132.000 168.613,132.000 168.040 C 132.000 167.468,132.378 167.000,132.839 167.000 C 133.301 167.000,134.538 165.205,135.589 163.011 C 138.345 157.259,140.217 157.846,142.724 165.250 M87.500 180.420 C 95.459 181.831,98.095 182.622,105.250 185.747 C 109.625 187.658,109.654 187.777,106.901 192.443 C 104.402 196.679,104.774 196.645,95.405 193.500 C 48.200 177.654,4.905 226.443,25.765 271.979 C 48.105 320.744,121.348 312.957,133.072 260.571 L 134.318 255.000 138.691 255.000 C 153.584 255.000,137.201 288.227,114.000 305.075 C 105.833 311.006,83.004 317.902,83.760 314.210 C 83.947 313.296,83.356 313.376,81.649 314.494 C 79.058 316.192,65.392 315.815,61.907 313.950 C 60.931 313.428,59.397 313.000,58.500 313.000 C 51.256 313.000,31.308 299.174,23.428 288.692 C 15.594 278.270,8.518 260.490,11.010 257.488 C 11.659 256.706,11.957 255.490,11.673 254.784 C 11.367 254.020,11.072 254.310,10.945 255.500 C 10.828 256.600,10.439 255.402,10.080 252.839 C 9.721 250.275,9.718 245.775,10.073 242.839 C 10.428 239.902,10.782 238.137,10.859 238.917 C 10.937 239.696,11.256 240.077,11.569 239.764 C 11.882 239.451,11.610 238.349,10.965 237.315 C 10.040 235.834,10.131 234.623,11.396 231.596 C 12.278 229.484,13.000 227.129,13.000 226.364 C 13.000 225.599,14.238 222.391,15.750 219.236 C 29.009 191.579,58.978 175.366,87.500 180.420 M332.500 180.463 C 355.203 184.510,373.173 197.702,382.844 217.420 C 387.516 226.945,390.712 238.688,389.077 240.323 C 387.720 241.680,387.655 244.331,389.000 243.500 C 389.626 243.113,389.974 245.057,389.930 248.691 C 389.879 252.861,389.617 253.936,389.000 252.500 C 388.299 250.870,388.128 250.812,388.070 252.191 C 388.032 253.121,388.490 254.185,389.090 254.556 C 391.451 256.015,386.191 272.698,380.182 282.807 C 366.386 306.021,333.863 320.894,310.192 314.815 C 308.161 314.294,304.925 313.516,303.000 313.087 C 255.035 302.400,238.064 233.982,274.668 198.864 C 284.685 189.253,289.961 187.238,291.799 192.321 C 293.550 197.164,293.312 198.381,290.250 200.223 C 254.666 221.632,258.104 280.261,296.000 298.287 C 351.393 324.636,403.601 262.179,367.403 212.867 C 354.782 195.675,325.945 185.884,307.500 192.529 C 302.167 194.450,302.258 194.471,299.989 190.750 C 296.184 184.509,297.977 182.810,310.835 180.478 C 319.999 178.817,323.253 178.814,332.500 180.463 M65.728 182.722 C 67.503 182.943,70.653 182.946,72.728 182.730 C 74.802 182.513,73.350 182.333,69.500 182.328 C 65.650 182.324,63.952 182.501,65.728 182.722 M81.768 182.725 C 83.565 182.947,86.265 182.943,87.768 182.715 C 89.271 182.486,87.800 182.304,84.500 182.310 C 81.200 182.315,79.971 182.502,81.768 182.725 M124.577 198.709 C 131.665 205.299,141.959 221.573,142.015 226.277 C 142.023 226.950,142.635 229.300,143.376 231.500 C 144.117 233.700,144.808 238.088,144.913 241.250 L 145.103 247.000 141.123 247.000 C 136.222 247.000,134.000 244.959,134.000 240.457 C 134.000 231.606,125.145 214.210,116.528 206.134 C 111.509 201.430,111.239 200.557,113.692 196.973 C 116.950 192.212,117.722 192.335,124.577 198.709 M89.936 200.608 C 99.570 202.968,99.915 203.605,95.207 210.326 C 93.044 213.414,91.051 215.718,90.779 215.446 C 90.508 215.174,89.658 215.750,88.893 216.726 C 87.626 218.339,87.659 218.376,89.250 217.128 C 91.543 215.329,91.483 216.570,89.133 219.558 C 88.106 220.864,86.909 221.610,86.472 221.216 C 86.036 220.822,86.008 221.071,86.410 221.768 C 87.147 223.048,84.096 228.833,80.782 232.439 C 79.802 233.505,79.000 234.769,79.000 235.248 C 79.000 235.726,78.480 235.797,77.845 235.405 C 77.120 234.956,76.963 235.131,77.423 235.875 C 77.826 236.527,76.995 239.039,75.577 241.458 C 74.160 243.877,73.000 246.548,73.000 247.393 C 73.000 251.066,80.364 251.578,81.505 247.984 C 82.313 245.437,84.507 244.865,89.322 245.944 C 91.620 246.459,97.775 247.613,103.000 248.508 C 112.908 250.205,121.263 251.835,124.250 252.655 C 128.584 253.844,119.258 278.000,114.465 278.000 C 113.865 278.000,112.081 279.350,110.500 281.000 C 108.919 282.650,108.013 284.000,108.487 284.000 C 110.432 284.000,104.343 289.131,100.084 291.081 C 86.795 297.166,79.890 298.128,67.744 295.587 C 57.827 293.512,44.952 286.504,46.489 284.018 C 46.727 283.632,45.297 281.783,43.311 279.908 C 41.325 278.034,40.079 277.175,40.542 278.000 C 41.273 279.303,41.157 279.316,39.656 278.097 C 36.448 275.494,30.795 264.220,31.533 261.896 C 31.964 260.537,31.838 259.982,31.190 260.383 C 29.743 261.277,27.897 252.062,29.079 249.852 C 29.679 248.731,29.628 247.888,28.932 247.458 C 27.213 246.396,29.273 235.808,32.716 228.000 C 37.928 216.183,55.059 200.736,61.179 202.336 C 62.182 202.599,62.774 202.444,62.495 201.992 C 61.627 200.587,64.154 200.277,74.500 200.516 C 84.016 200.736,84.137 200.713,77.000 200.057 L 69.500 199.367 76.436 199.183 C 80.251 199.083,86.326 199.724,89.936 200.608 M329.000 199.975 C 329.000 200.512,330.273 200.695,331.836 200.383 C 333.621 200.026,335.200 200.343,336.095 201.238 C 336.878 202.021,338.067 202.478,338.737 202.254 C 340.146 201.785,348.000 205.965,348.000 207.184 C 348.000 207.633,348.636 208.000,349.413 208.000 C 354.682 208.000,367.112 225.791,369.859 237.264 C 372.733 249.267,366.883 275.500,361.333 275.500 C 360.692 275.500,359.792 275.910,359.333 276.410 C 358.849 276.939,359.024 277.019,359.750 276.601 C 363.548 274.416,357.167 282.056,352.500 285.282 L 349.500 287.355 352.000 284.428 L 354.500 281.500 351.750 283.924 C 350.238 285.258,349.000 286.945,349.000 287.674 C 349.000 288.403,348.523 289.000,347.941 289.000 C 347.359 289.000,347.203 288.480,347.595 287.845 C 348.041 287.124,347.869 286.963,347.138 287.415 C 346.494 287.813,346.233 288.568,346.557 289.093 C 347.928 291.311,329.300 297.049,321.000 296.964 C 309.819 296.851,300.222 292.416,291.763 283.454 C 287.909 279.372,284.377 276.267,283.914 276.553 C 282.662 277.327,278.062 269.477,275.055 261.433 C 273.246 256.592,273.210 243.668,275.000 241.463 C 275.862 240.402,275.968 239.936,275.250 240.367 C 273.501 241.418,273.589 236.463,275.349 234.819 C 276.091 234.126,276.517 232.869,276.297 232.026 C 275.910 230.547,279.646 222.591,282.237 219.377 C 285.917 214.810,288.132 212.964,289.163 213.601 C 289.839 214.019,290.037 213.869,289.645 213.235 C 289.280 212.644,289.645 211.562,290.456 210.831 C 293.905 207.718,294.987 207.000,296.229 207.000 C 297.478 207.000,308.023 227.258,308.007 229.628 C 308.003 230.248,308.675 231.315,309.500 232.000 C 310.325 232.685,311.000 234.090,311.000 235.122 C 311.000 236.155,311.352 237.000,311.782 237.000 C 312.211 237.000,314.103 239.912,315.985 243.471 C 319.633 250.372,320.814 251.336,324.485 250.414 C 326.826 249.827,328.655 246.033,327.078 245.036 C 325.374 243.957,321.903 236.696,322.432 235.317 C 322.732 234.535,322.576 234.144,322.086 234.447 C 321.163 235.017,317.000 228.735,317.000 226.772 C 317.000 226.159,316.403 224.947,315.674 224.079 C 314.944 223.210,312.368 218.068,309.949 212.651 C 304.975 201.515,305.500 199.231,312.772 200.369 C 314.688 200.669,315.804 200.492,315.463 199.941 C 315.121 199.387,317.786 199.000,321.941 199.000 C 325.860 199.000,329.000 199.434,329.000 199.975 M121.355 226.469 C 124.275 232.636,124.634 234.439,122.750 233.485 C 122.063 233.137,122.326 233.525,123.335 234.348 C 124.344 235.171,125.416 237.679,125.716 239.922 C 126.333 244.520,125.996 244.672,118.693 243.094 C 116.387 242.596,110.225 241.427,105.000 240.496 C 95.066 238.725,89.000 237.166,89.000 236.383 C 89.000 236.130,92.375 230.767,96.500 224.468 C 100.625 218.168,104.000 212.583,104.000 212.056 C 104.000 205.486,116.229 215.642,121.355 226.469 M192.545 258.047 C 198.749 264.523,194.340 275.140,185.576 274.826 C 180.761 274.653,177.744 272.928,176.154 269.439 C 171.465 259.147,184.752 249.913,192.545 258.047 M289.538 282.197 C 292.267 285.056,293.600 286.767,292.500 286.000 C 287.625 282.599,282.516 277.000,284.288 277.000 C 284.446 277.000,286.808 279.339,289.538 282.197 M45.502 283.831 C 44.838 284.495,41.000 280.948,41.000 279.671 C 41.000 279.110,42.123 279.707,43.496 280.996 C 44.869 282.286,45.772 283.562,45.502 283.831 M113.449 280.272 C 113.181 280.971,111.958 282.155,110.731 282.903 C 108.603 284.200,108.612 284.141,110.924 281.631 C 113.631 278.693,114.165 278.406,113.449 280.272 M122.453 295.250 L 118.500 299.500 122.750 295.547 C 126.702 291.871,127.460 291.000,126.703 291.000 C 126.540 291.000,124.627 292.913,122.453 295.250 " stroke="none" fill="#000000" fill-rule="evenodd"></path></g></svg>