<svg id="svg" version="1.1" xmlns="http://www.w3.org/2000/svg" xmlns:xlink="http://www.w3.org/1999/xlink" width="400" height="400" viewBox="0, 0, 400,400"><g id="svgg"><path id="path0" d="M189.573 7.570 C 187.488 9.655,187.049 11.902,186.751 22.000 L 186.500 30.500 182.725 31.000 C 179.993 31.362,178.436 32.287,177.091 34.348 C 175.780 36.356,175.057 36.798,174.638 35.848 C 174.311 35.106,174.145 39.000,174.268 44.500 C 174.485 54.206,174.427 54.498,172.305 54.427 C 171.102 54.387,170.204 54.837,170.309 55.427 C 170.414 56.017,169.510 56.467,168.300 56.426 C 167.090 56.385,166.300 56.676,166.545 57.073 C 166.940 57.712,161.674 60.466,145.777 67.934 C 143.180 69.154,140.523 69.823,139.873 69.421 C 139.146 68.972,138.956 69.120,139.379 69.805 C 139.799 70.483,138.331 71.710,135.626 72.943 C 127.625 76.588,127.000 78.642,127.000 101.309 C 127.000 114.325,127.364 121.107,128.087 121.554 C 128.685 121.923,128.978 122.976,128.738 123.892 C 128.499 124.809,128.929 126.144,129.694 126.858 C 130.467 127.581,130.848 129.122,130.552 130.329 C 130.258 131.523,130.297 131.876,130.638 131.113 C 131.312 129.605,135.703 138.267,136.640 142.952 C 137.187 145.683,132.728 152.568,131.076 151.547 C 128.966 150.243,128.354 186.365,130.432 189.536 C 132.487 192.673,132.419 193.562,130.250 191.921 C 128.739 190.778,128.678 190.795,129.800 192.048 C 130.515 192.847,131.588 193.500,132.185 193.500 C 134.330 193.500,133.482 217.671,131.081 224.953 C 128.743 232.045,127.749 382.891,130.050 381.469 C 130.575 381.145,131.401 381.919,131.887 383.190 C 132.373 384.460,133.712 386.348,134.862 387.384 C 136.012 388.420,136.705 389.668,136.402 390.158 C 136.099 390.649,136.222 390.950,136.676 390.828 C 137.129 390.706,139.750 391.708,142.500 393.053 L 147.500 395.500 199.500 395.500 L 251.500 395.500 256.500 393.094 C 259.250 391.771,261.871 390.770,262.324 390.869 C 262.778 390.968,262.901 390.649,262.598 390.158 C 262.295 389.668,262.988 388.420,264.138 387.384 C 265.288 386.348,266.627 384.460,267.113 383.190 C 267.599 381.919,268.420 381.142,268.938 381.462 C 271.228 382.877,270.257 232.048,267.930 224.970 C 265.514 217.620,264.598 193.500,266.735 193.500 C 267.339 193.500,268.208 193.090,268.667 192.590 C 269.151 192.061,268.976 191.981,268.250 192.399 C 266.638 193.326,266.674 192.961,268.569 189.162 C 270.626 185.038,270.030 150.245,267.924 151.547 C 264.812 153.471,261.327 144.324,263.393 139.651 C 264.159 137.918,265.083 135.613,265.447 134.528 C 266.003 132.868,266.262 132.789,267.084 134.028 C 267.779 135.075,267.884 134.635,267.449 132.500 C 266.963 130.114,267.073 129.807,267.985 131.000 C 268.929 132.236,269.025 132.122,268.532 130.355 C 268.201 129.174,268.509 127.602,269.216 126.855 C 271.161 124.802,271.327 123.104,271.717 101.210 C 272.133 77.922,271.796 76.779,263.392 72.951 C 260.939 71.833,259.150 70.566,259.416 70.135 C 259.683 69.704,258.910 69.385,257.700 69.426 C 256.490 69.467,255.586 69.017,255.691 68.427 C 255.796 67.837,254.896 67.387,253.691 67.427 C 252.480 67.467,251.606 66.957,251.738 66.286 C 251.869 65.618,251.379 65.301,250.650 65.581 C 249.038 66.199,227.774 56.175,228.433 55.108 C 228.690 54.692,227.910 54.385,226.700 54.426 C 224.559 54.498,224.509 54.246,224.851 45.000 C 225.045 39.775,224.853 35.841,224.427 36.258 C 224.000 36.675,222.840 35.775,221.850 34.258 C 220.565 32.288,218.971 31.357,216.275 31.000 L 212.500 30.500 212.249 22.000 C 211.799 6.727,211.219 6.000,199.500 6.000 C 193.239 6.000,190.749 6.394,189.573 7.570 M213.343 20.500 C 213.346 24.900,213.522 26.576,213.733 24.224 C 213.945 21.872,213.942 18.272,213.727 16.224 C 213.512 14.176,213.339 16.100,213.343 20.500 M203.291 14.750 C 203.516 15.162,203.414 18.307,203.065 21.738 C 202.662 25.690,202.808 28.136,203.464 28.412 C 204.935 29.031,201.930 30.969,199.500 30.969 C 197.070 30.969,194.065 29.031,195.536 28.412 C 196.192 28.136,196.338 25.690,195.935 21.738 C 195.165 14.184,195.250 14.000,199.500 14.000 C 201.360 14.000,203.066 14.338,203.291 14.750 M214.500 46.000 L 214.500 52.500 199.500 52.500 L 184.500 52.500 184.193 47.119 C 183.705 38.552,183.000 38.910,199.729 39.223 L 214.500 39.500 214.500 46.000 M223.669 63.178 C 226.077 64.243,227.788 65.534,227.472 66.046 C 227.155 66.558,227.527 66.735,228.299 66.439 C 229.071 66.143,232.581 67.227,236.101 68.849 C 239.620 70.470,243.287 72.053,244.250 72.367 C 245.213 72.681,246.000 73.553,246.000 74.307 C 246.000 75.444,238.118 75.702,199.500 75.832 C 162.811 75.956,153.000 75.724,153.000 74.735 C 153.000 73.170,168.912 65.752,170.754 66.459 C 171.497 66.744,171.825 66.525,171.482 65.971 C 168.543 61.215,213.761 58.795,223.669 63.178 M261.813 83.647 L 264.126 84.266 263.789 101.383 C 263.446 118.820,262.107 126.209,259.877 122.966 C 259.120 121.865,259.031 122.073,259.519 123.804 C 259.925 125.243,259.386 127.774,258.085 130.543 C 256.938 132.983,256.000 135.568,256.000 136.289 C 256.000 137.010,255.575 138.028,255.055 138.550 C 254.535 139.073,253.973 142.200,253.805 145.500 L 253.500 151.500 199.500 151.500 L 145.500 151.500 145.231 146.000 C 145.083 142.975,144.565 139.600,144.079 138.500 C 140.820 131.124,139.010 125.098,139.554 123.437 C 140.058 121.900,139.974 121.803,139.152 122.966 C 136.968 126.054,135.612 118.855,135.212 102.052 C 134.858 87.165,134.990 85.480,136.602 84.302 C 138.480 82.928,256.818 82.309,261.813 83.647 M260.681 159.781 C 262.460 160.913,262.809 183.321,261.079 185.405 C 259.345 187.494,140.277 187.877,138.200 185.800 C 136.484 184.084,136.529 160.357,138.250 159.662 C 140.278 158.844,259.389 158.960,260.681 159.781 M256.370 197.250 C 256.701 198.488,256.979 203.584,256.986 208.576 C 256.997 215.988,257.504 219.012,259.750 225.076 L 262.500 232.500 262.500 303.500 C 262.500 381.674,262.853 377.118,256.339 383.114 C 251.163 387.880,249.729 388.001,199.101 387.978 C 146.160 387.954,147.082 388.062,140.500 381.061 L 137.500 377.869 137.230 305.185 L 136.959 232.500 139.980 223.253 C 142.480 215.600,143.000 212.369,143.000 204.503 L 143.000 195.000 199.383 195.000 L 255.767 195.000 256.370 197.250 M191.506 267.993 C 173.853 289.158,169.340 303.372,176.432 315.474 C 189.691 338.099,223.670 330.439,225.764 304.353 C 226.443 295.898,220.874 284.376,209.166 270.007 C 199.463 258.100,199.731 258.131,191.506 267.993 M206.272 279.250 C 221.784 300.138,222.200 312.464,207.616 319.087 C 187.440 328.249,173.584 307.064,186.957 287.500 C 199.410 269.282,199.000 269.458,206.272 279.250 " stroke="none" fill="#000000" fill-rule="evenodd"></path></g></svg>